<svg width="50" height="44" viewBox="0 0 50 44" fill="none" xmlns="http://www.w3.org/2000/svg">
<path d="M25 3.66675H17.7083C15.7744 3.66675 13.9198 4.34279 12.5523 5.54615C11.1849 6.7495 10.4166 8.38161 10.4166 10.0834C10.4166 11.7852 11.1849 13.4173 12.5523 14.6207C13.9198 15.824 15.7744 16.5001 17.7083 16.5001H25M25 3.66675V16.5001M25 3.66675H32.2916C33.2492 3.66675 34.1974 3.83272 35.082 4.15519C35.9667 4.47766 36.7705 4.9503 37.4476 5.54615C38.1247 6.14199 38.6618 6.84936 39.0282 7.62786C39.3947 8.40637 39.5833 9.24077 39.5833 10.0834C39.5833 10.9261 39.3947 11.7605 39.0282 12.539C38.6618 13.3175 38.1247 14.0248 37.4476 14.6207C36.7705 15.2165 35.9667 15.6892 35.082 16.0116C34.1974 16.3341 33.2492 16.5001 32.2916 16.5001H25" stroke="black" stroke-width="2" stroke-linecap="round" stroke-linejoin="round"/>
<path d="M17.7083 29.3333C15.7744 29.3333 13.9198 30.0094 12.5523 31.2127C11.1849 32.4161 10.4166 34.0482 10.4166 35.75C10.4166 37.4518 11.1849 39.0839 12.5523 40.2873C13.9198 41.4906 15.7744 42.1667 17.7083 42.1667C19.6422 42.1667 21.4968 41.4906 22.8643 40.2873C24.2317 39.0839 25 37.4518 25 35.75V29.3333M17.7083 29.3333H25M17.7083 29.3333C15.7744 29.3333 13.9198 28.6573 12.5523 27.4539C11.1849 26.2506 10.4166 24.6185 10.4166 22.9167C10.4166 21.2149 11.1849 19.5828 12.5523 18.3794C13.9198 17.176 15.7744 16.5 17.7083 16.5H25V29.3333M25 22.9167C25 22.074 25.1886 21.2396 25.555 20.4611C25.9214 19.6826 26.4585 18.9752 27.1356 18.3794C27.8127 17.7836 28.6166 17.3109 29.5012 16.9884C30.3859 16.666 31.3341 16.5 32.2916 16.5C33.2492 16.5 34.1974 16.666 35.082 16.9884C35.9667 17.3109 36.7705 17.7836 37.4476 18.3794C38.1247 18.9752 38.6618 19.6826 39.0282 20.4611C39.3947 21.2396 39.5833 22.074 39.5833 22.9167C39.5833 23.7593 39.3947 24.5937 39.0282 25.3722C38.6618 26.1507 38.1247 26.8581 37.4476 27.4539C36.7705 28.0498 35.9667 28.5224 35.082 28.8449C34.1974 29.1674 33.2492 29.3333 32.2916 29.3333C31.3341 29.3333 30.3859 29.1674 29.5012 28.8449C28.6166 28.5224 27.8127 28.0498 27.1356 27.4539C26.4585 26.8581 25.9214 26.1507 25.555 25.3722C25.1886 24.5937 25 23.7593 25 22.9167Z" stroke="black" stroke-width="2" stroke-linecap="round" stroke-linejoin="round"/>
</svg>
